<mxfile host="" modified="2020-06-16T15:15:04.917Z" agent="5.0 (Macintosh; Intel Mac OS X 10_14_0) AppleWebKit/537.36 (KHTML, like Gecko) Code/1.46.0 Chrome/78.0.3904.130 Electron/7.3.1 Safari/537.36" etag="xY2hm28z1U5DJxZUYahI" version="13.1.3" pages="5">
    <diagram id="8It3uFXG8_qd-ijJooCu" name="draw">
        <mxGraphModel dx="646" dy="414" grid="1" gridSize="10" guides="1" tooltips="1" connect="1" arrows="1" fold="1" page="1" pageScale="1" pageWidth="2339" pageHeight="3300" math="0" shadow="0">
            <root>
                <mxCell id="2YqwzUXEGQ6_o2DR0RQk-0"/>
                <mxCell id="2YqwzUXEGQ6_o2DR0RQk-1" parent="2YqwzUXEGQ6_o2DR0RQk-0"/>
                <mxCell id="2YqwzUXEGQ6_o2DR0RQk-2" value="" style="swimlane;html=1;startSize=20;horizontal=1;containerType=tree;fillColor=none;strokeColor=none;" parent="2YqwzUXEGQ6_o2DR0RQk-1" vertex="1">
                    <mxGeometry x="30" y="100" width="660" height="310" as="geometry"/>
                </mxCell>
                <mxCell id="2YqwzUXEGQ6_o2DR0RQk-3" value="" style="edgeStyle=entityRelationEdgeStyle;startArrow=none;endArrow=none;segment=10;curved=1;" parent="2YqwzUXEGQ6_o2DR0RQk-2" source="2YqwzUXEGQ6_o2DR0RQk-7" target="2YqwzUXEGQ6_o2DR0RQk-8" edge="1">
                    <mxGeometry relative="1" as="geometry"/>
                </mxCell>
                <mxCell id="2YqwzUXEGQ6_o2DR0RQk-7" value="drawio" style="ellipse;whiteSpace=wrap;html=1;align=center;container=1;recursiveResize=0;treeFolding=1;treeMoving=1;" parent="2YqwzUXEGQ6_o2DR0RQk-2" vertex="1">
                    <mxGeometry x="20" y="92" width="100" height="40" as="geometry"/>
                </mxCell>
                <mxCell id="2YqwzUXEGQ6_o2DR0RQk-8" value="graph" style="whiteSpace=wrap;html=1;rounded=1;arcSize=27;align=center;verticalAlign=middle;container=1;recursiveResize=0;strokeWidth=1;autosize=1;spacing=4;treeFolding=1;treeMoving=1;" parent="2YqwzUXEGQ6_o2DR0RQk-2" vertex="1">
                    <mxGeometry x="140" y="15" width="70" height="30" as="geometry"/>
                </mxCell>
                <mxCell id="2YqwzUXEGQ6_o2DR0RQk-12" value="" style="edgeStyle=entityRelationEdgeStyle;startArrow=none;endArrow=none;segment=10;curved=1;" parent="2YqwzUXEGQ6_o2DR0RQk-2" source="2YqwzUXEGQ6_o2DR0RQk-8" target="2YqwzUXEGQ6_o2DR0RQk-13" edge="1">
                    <mxGeometry relative="1" as="geometry">
                        <mxPoint x="100" y="160" as="sourcePoint"/>
                    </mxGeometry>
                </mxCell>
                <mxCell id="2YqwzUXEGQ6_o2DR0RQk-13" value="mindmap" style="whiteSpace=wrap;html=1;rounded=1;arcSize=23;align=center;verticalAlign=middle;container=1;recursiveResize=0;strokeWidth=1;autosize=1;spacing=4;treeFolding=1;treeMoving=1;" parent="2YqwzUXEGQ6_o2DR0RQk-2" vertex="1">
                    <mxGeometry x="235" y="15" width="90" height="30" as="geometry"/>
                </mxCell>
                <mxCell id="uvE-s3hSl1TZH1Vg0d8T-2" value="" style="edgeStyle=entityRelationEdgeStyle;startArrow=none;endArrow=none;segment=10;curved=1;" parent="2YqwzUXEGQ6_o2DR0RQk-2" source="2YqwzUXEGQ6_o2DR0RQk-7" target="uvE-s3hSl1TZH1Vg0d8T-3" edge="1">
                    <mxGeometry relative="1" as="geometry">
                        <mxPoint x="150" y="163" as="sourcePoint"/>
                    </mxGeometry>
                </mxCell>
                <mxCell id="uvE-s3hSl1TZH1Vg0d8T-3" value="plugins" style="whiteSpace=wrap;html=1;rounded=1;arcSize=30;align=center;verticalAlign=middle;container=1;recursiveResize=0;strokeWidth=1;autosize=1;spacing=4;treeFolding=1;treeMoving=1;" parent="2YqwzUXEGQ6_o2DR0RQk-2" vertex="1">
                    <mxGeometry x="140" y="97" width="80" height="30" as="geometry"/>
                </mxCell>
                <mxCell id="uvE-s3hSl1TZH1Vg0d8T-4" value="" style="edgeStyle=entityRelationEdgeStyle;startArrow=none;endArrow=none;segment=10;curved=1;" parent="2YqwzUXEGQ6_o2DR0RQk-2" source="uvE-s3hSl1TZH1Vg0d8T-3" target="uvE-s3hSl1TZH1Vg0d8T-5" edge="1">
                    <mxGeometry relative="1" as="geometry">
                        <mxPoint x="110" y="163" as="sourcePoint"/>
                    </mxGeometry>
                </mxCell>
                <mxCell id="uvE-s3hSl1TZH1Vg0d8T-5" value="/plugins/explore.js" style="whiteSpace=wrap;html=1;rounded=1;arcSize=30;align=center;verticalAlign=middle;container=1;recursiveResize=0;strokeWidth=1;autosize=1;spacing=4;treeFolding=1;treeMoving=1;" parent="2YqwzUXEGQ6_o2DR0RQk-2" vertex="1">
                    <mxGeometry x="240" y="70" width="140" height="30" as="geometry"/>
                </mxCell>
                <mxCell id="uvE-s3hSl1TZH1Vg0d8T-6" value="" style="edgeStyle=entityRelationEdgeStyle;startArrow=none;endArrow=none;segment=10;curved=1;" parent="2YqwzUXEGQ6_o2DR0RQk-2" source="uvE-s3hSl1TZH1Vg0d8T-3" target="uvE-s3hSl1TZH1Vg0d8T-7" edge="1">
                    <mxGeometry relative="1" as="geometry">
                        <mxPoint x="240" y="170" as="sourcePoint"/>
                    </mxGeometry>
                </mxCell>
                <mxCell id="uvE-s3hSl1TZH1Vg0d8T-7" value="&lt;span style=&quot;font-family: helvetica, arial, sans-serif; font-size: 14px; white-space: nowrap;&quot;&gt;./plugins/text.js&lt;/span&gt;" style="whiteSpace=wrap;html=1;rounded=1;arcSize=50;align=center;verticalAlign=middle;container=1;recursiveResize=0;strokeWidth=1;autosize=1;spacing=4;treeFolding=1;treeMoving=1;labelBackgroundColor=none;" parent="2YqwzUXEGQ6_o2DR0RQk-2" vertex="1">
                    <mxGeometry x="240" y="127" width="130" height="30" as="geometry"/>
                </mxCell>
                <mxCell id="BKtEa749tKmsaOvfNqSU-0" value="" style="edgeStyle=entityRelationEdgeStyle;startArrow=none;endArrow=none;segment=10;curved=1;" parent="2YqwzUXEGQ6_o2DR0RQk-2" source="2YqwzUXEGQ6_o2DR0RQk-7" target="BKtEa749tKmsaOvfNqSU-1" edge="1">
                    <mxGeometry relative="1" as="geometry">
                        <mxPoint x="150" y="170" as="sourcePoint"/>
                    </mxGeometry>
                </mxCell>
                <mxCell id="BKtEa749tKmsaOvfNqSU-1" value="text" style="whiteSpace=wrap;html=1;rounded=1;arcSize=50;align=center;verticalAlign=middle;container=1;recursiveResize=0;strokeWidth=1;autosize=1;spacing=4;treeFolding=1;treeMoving=1;" parent="2YqwzUXEGQ6_o2DR0RQk-2" vertex="1">
                    <mxGeometry x="140" y="200" width="80" height="30" as="geometry"/>
                </mxCell>
                <mxCell id="BKtEa749tKmsaOvfNqSU-2" value="" style="edgeStyle=entityRelationEdgeStyle;startArrow=none;endArrow=none;segment=10;curved=1;" parent="2YqwzUXEGQ6_o2DR0RQk-2" source="BKtEa749tKmsaOvfNqSU-1" target="BKtEa749tKmsaOvfNqSU-3" edge="1">
                    <mxGeometry relative="1" as="geometry">
                        <mxPoint x="150" y="212" as="sourcePoint"/>
                    </mxGeometry>
                </mxCell>
                <mxCell id="BKtEa749tKmsaOvfNqSU-3" value="&lt;h3&gt;insert:&lt;/h3&gt;&lt;ol&gt;&lt;li&gt;link&lt;/li&gt;&lt;li&gt;image&lt;/li&gt;&lt;li&gt;rule&lt;/li&gt;&lt;/ol&gt;" style="whiteSpace=wrap;html=1;rounded=1;arcSize=14;align=left;verticalAlign=middle;container=1;recursiveResize=0;strokeWidth=1;autosize=1;spacing=4;treeFolding=1;treeMoving=1;" parent="2YqwzUXEGQ6_o2DR0RQk-2" vertex="1">
                    <mxGeometry x="245" y="170" width="170" height="90" as="geometry"/>
                </mxCell>
            </root>
        </mxGraphModel>
    </diagram>
    <diagram id="Z_6AD2bOGnBTtgEQRjr-" name="style">
        <mxGraphModel dx="646" dy="414" grid="1" gridSize="10" guides="1" tooltips="1" connect="1" arrows="1" fold="1" page="1" pageScale="1" pageWidth="2339" pageHeight="3300" math="0" shadow="0">
            <root>
                <mxCell id="pujw90e85f3f82JCoafP-0"/>
                <mxCell id="pujw90e85f3f82JCoafP-1" parent="pujw90e85f3f82JCoafP-0"/>
                <mxCell id="C9lEH_5b1s0cTojLv4CT-0" value="Untitled Layer" parent="pujw90e85f3f82JCoafP-0"/>
                <mxCell id="C9lEH_5b1s0cTojLv4CT-1" value="" style="swimlane;html=1;startSize=20;horizontal=1;containerType=tree;fillColor=none;strokeColor=none;fontStyle=0;labelBackgroundColor=none;" parent="C9lEH_5b1s0cTojLv4CT-0" vertex="1">
                    <mxGeometry x="30" y="80" width="820" height="370" as="geometry"/>
                </mxCell>
                <mxCell id="C9lEH_5b1s0cTojLv4CT-2" value="" style="edgeStyle=entityRelationEdgeStyle;startArrow=none;endArrow=none;segment=10;curved=1;" parent="C9lEH_5b1s0cTojLv4CT-1" source="C9lEH_5b1s0cTojLv4CT-3" target="C9lEH_5b1s0cTojLv4CT-4" edge="1">
                    <mxGeometry relative="1" as="geometry"/>
                </mxCell>
                <mxCell id="C9lEH_5b1s0cTojLv4CT-3" value="style" style="ellipse;whiteSpace=wrap;html=1;align=center;container=1;recursiveResize=0;treeFolding=1;treeMoving=1;" parent="C9lEH_5b1s0cTojLv4CT-1" vertex="1">
                    <mxGeometry x="50" y="95" width="100" height="40" as="geometry"/>
                </mxCell>
                <mxCell id="C9lEH_5b1s0cTojLv4CT-4" value="font" style="whiteSpace=wrap;html=1;rounded=1;arcSize=50;align=center;verticalAlign=middle;container=1;recursiveResize=0;strokeWidth=1;autosize=1;spacing=4;treeFolding=1;treeMoving=1;" parent="C9lEH_5b1s0cTojLv4CT-1" vertex="1">
                    <mxGeometry x="210" y="100" width="60" height="30" as="geometry"/>
                </mxCell>
                <mxCell id="C9lEH_5b1s0cTojLv4CT-5" value="&lt;font color=&quot;#0071bc&quot;&gt;link&lt;u&gt;&amp;nbsp;&lt;/u&gt;&lt;/font&gt;{#0071BC(blue), underline}" style="whiteSpace=wrap;html=1;rounded=1;arcSize=50;align=left;verticalAlign=middle;container=1;recursiveResize=0;strokeWidth=1;autosize=1;spacing=4;treeFolding=1;treeMoving=1;spacingLeft=15;" parent="C9lEH_5b1s0cTojLv4CT-1" vertex="1">
                    <mxGeometry x="290" y="140" width="220" height="30" as="geometry"/>
                </mxCell>
                <mxCell id="C9lEH_5b1s0cTojLv4CT-6" value="" style="edgeStyle=entityRelationEdgeStyle;startArrow=none;endArrow=none;segment=10;curved=1;exitX=1;exitY=0.5;exitDx=0;exitDy=0;" parent="C9lEH_5b1s0cTojLv4CT-1" source="C9lEH_5b1s0cTojLv4CT-4" target="C9lEH_5b1s0cTojLv4CT-5" edge="1">
                    <mxGeometry relative="1" as="geometry">
                        <mxPoint x="285" y="120" as="sourcePoint"/>
                    </mxGeometry>
                </mxCell>
                <mxCell id="C9lEH_5b1s0cTojLv4CT-7" value="" style="edgeStyle=entityRelationEdgeStyle;startArrow=none;endArrow=none;segment=10;curved=1;exitX=1;exitY=0.5;exitDx=0;exitDy=0;" parent="C9lEH_5b1s0cTojLv4CT-1" source="C9lEH_5b1s0cTojLv4CT-4" target="C9lEH_5b1s0cTojLv4CT-8" edge="1">
                    <mxGeometry relative="1" as="geometry">
                        <mxPoint x="310" y="125" as="sourcePoint"/>
                    </mxGeometry>
                </mxCell>
                <mxCell id="C9lEH_5b1s0cTojLv4CT-8" value="&lt;font&gt;&lt;span&gt;body {Helvetica, #00000(black)}&lt;/span&gt;&lt;/font&gt;" style="whiteSpace=wrap;html=1;rounded=1;arcSize=50;align=left;verticalAlign=middle;container=1;recursiveResize=0;strokeWidth=1;autosize=1;spacing=4;treeFolding=1;treeMoving=1;fontColor=#FFFFFF;fontStyle=0;spacingLeft=15;" parent="C9lEH_5b1s0cTojLv4CT-1" vertex="1">
                    <mxGeometry x="290" y="10" width="220" height="30" as="geometry"/>
                </mxCell>
                <mxCell id="C9lEH_5b1s0cTojLv4CT-9" value="" style="edgeStyle=entityRelationEdgeStyle;startArrow=none;endArrow=none;segment=10;curved=1;exitX=1;exitY=0.5;exitDx=0;exitDy=0;" parent="C9lEH_5b1s0cTojLv4CT-1" source="C9lEH_5b1s0cTojLv4CT-4" target="C9lEH_5b1s0cTojLv4CT-10" edge="1">
                    <mxGeometry relative="1" as="geometry">
                        <mxPoint x="305" y="145" as="sourcePoint"/>
                    </mxGeometry>
                </mxCell>
                <mxCell id="C9lEH_5b1s0cTojLv4CT-10" value="&lt;font&gt;&lt;i&gt;term&lt;/i&gt;&amp;nbsp;{italic}&lt;/font&gt;" style="whiteSpace=wrap;html=1;rounded=1;arcSize=50;align=left;verticalAlign=middle;container=1;recursiveResize=0;strokeWidth=1;autosize=1;spacing=4;treeFolding=1;treeMoving=1;spacingLeft=15;fontStyle=0;fontColor=#FFFFFF;labelBackgroundColor=none;" parent="C9lEH_5b1s0cTojLv4CT-1" vertex="1">
                    <mxGeometry x="290" y="100" width="110" height="30" as="geometry"/>
                </mxCell>
                <mxCell id="C9lEH_5b1s0cTojLv4CT-11" value="" style="edgeStyle=entityRelationEdgeStyle;startArrow=none;endArrow=none;segment=10;curved=1;exitX=1;exitY=0.5;exitDx=0;exitDy=0;" parent="C9lEH_5b1s0cTojLv4CT-1" source="C9lEH_5b1s0cTojLv4CT-4" target="C9lEH_5b1s0cTojLv4CT-12" edge="1">
                    <mxGeometry relative="1" as="geometry">
                        <mxPoint x="300" y="175" as="sourcePoint"/>
                    </mxGeometry>
                </mxCell>
                <mxCell id="C9lEH_5b1s0cTojLv4CT-12" value="&lt;font style=&quot;&quot;&gt;&lt;font face=&quot;Courier New&quot;&gt;&lt;font&gt;inline code; pat&lt;/font&gt;&lt;font&gt;h&lt;/font&gt;&amp;nbsp;&lt;/font&gt;{Courier New(mono-space), color(#0072BE), bg{#F4F2F9}}&lt;/font&gt;" style="whiteSpace=wrap;html=1;rounded=1;arcSize=50;align=left;verticalAlign=middle;container=1;recursiveResize=0;strokeWidth=1;autosize=1;spacing=4;treeFolding=1;treeMoving=1;spacingLeft=15;fontStyle=0;fontColor=#FFFFFF;labelBackgroundColor=none;" parent="C9lEH_5b1s0cTojLv4CT-1" vertex="1">
                    <mxGeometry x="290" y="180" width="500" height="30" as="geometry"/>
                </mxCell>
                <mxCell id="C9lEH_5b1s0cTojLv4CT-13" value="" style="edgeStyle=entityRelationEdgeStyle;startArrow=none;endArrow=none;segment=10;curved=1;exitX=1;exitY=0.5;exitDx=0;exitDy=0;" parent="C9lEH_5b1s0cTojLv4CT-1" source="C9lEH_5b1s0cTojLv4CT-4" target="C9lEH_5b1s0cTojLv4CT-14" edge="1">
                    <mxGeometry relative="1" as="geometry">
                        <mxPoint x="300" y="175" as="sourcePoint"/>
                    </mxGeometry>
                </mxCell>
                <mxCell id="C9lEH_5b1s0cTojLv4CT-14" value="&lt;font color=&quot;#ff0000&quot;&gt;emphasis&lt;/font&gt; {&lt;font&gt;#FF0000(red)}&lt;/font&gt;" style="whiteSpace=wrap;html=1;rounded=1;arcSize=50;align=left;verticalAlign=middle;container=1;recursiveResize=0;strokeWidth=1;autosize=1;spacing=4;treeFolding=1;treeMoving=1;fontColor=#FFFFFF;fontStyle=0;spacingLeft=15;" parent="C9lEH_5b1s0cTojLv4CT-1" vertex="1">
                    <mxGeometry x="290" y="50" width="190" height="30" as="geometry"/>
                </mxCell>
                <mxCell id="C9lEH_5b1s0cTojLv4CT-15" value="" style="edgeStyle=entityRelationEdgeStyle;startArrow=none;endArrow=none;segment=10;curved=1;exitX=1;exitY=0.5;exitDx=0;exitDy=0;" parent="C9lEH_5b1s0cTojLv4CT-1" source="C9lEH_5b1s0cTojLv4CT-4" target="C9lEH_5b1s0cTojLv4CT-16" edge="1">
                    <mxGeometry relative="1" as="geometry">
                        <mxPoint x="300" y="195" as="sourcePoint"/>
                    </mxGeometry>
                </mxCell>
                <mxCell id="C9lEH_5b1s0cTojLv4CT-16" value="&lt;font&gt;&lt;font face=&quot;Courier New&quot;&gt;large code&amp;nbsp;&lt;/font&gt;{block quotation, Courier New(mono-space), color{#0072BE}, bg{#F4F2F9}&lt;br&gt;&lt;br&gt;&lt;font face=&quot;Courier New&quot; style=&quot;background-color: rgb(244 , 242 , 249)&quot; color=&quot;#0072be&quot;&gt;val msg = &quot;hello&quot;&lt;br&gt;print(msg)&lt;/font&gt;&lt;br&gt;&lt;/font&gt;" style="whiteSpace=wrap;html=1;rounded=1;arcSize=30;align=left;verticalAlign=middle;container=1;recursiveResize=0;strokeWidth=1;autosize=1;spacing=4;treeFolding=1;treeMoving=1;spacingLeft=15;fontStyle=0;fontColor=#FFFFFF;" parent="C9lEH_5b1s0cTojLv4CT-1" vertex="1" collapsed="1">
                    <mxGeometry x="290" y="220" width="530" height="70" as="geometry"/>
                </mxCell>
                <mxCell id="ncQLfrlPMBfsVVdw1Yx3-0" value="" style="edgeStyle=entityRelationEdgeStyle;startArrow=none;endArrow=none;segment=10;curved=1;exitX=1;exitY=0.5;exitDx=0;exitDy=0;" parent="C9lEH_5b1s0cTojLv4CT-1" source="C9lEH_5b1s0cTojLv4CT-4" target="ncQLfrlPMBfsVVdw1Yx3-1" edge="1">
                    <mxGeometry relative="1" as="geometry">
                        <mxPoint x="300" y="195" as="sourcePoint"/>
                    </mxGeometry>
                </mxCell>
                <mxCell id="ncQLfrlPMBfsVVdw1Yx3-1" value="&lt;font&gt;&lt;font&gt;list - items and contents seperated by &quot;&lt;font&gt;-&lt;/font&gt;&quot;&lt;br&gt;&lt;/font&gt;&lt;/font&gt;" style="whiteSpace=wrap;html=1;rounded=1;arcSize=30;align=left;verticalAlign=middle;container=1;recursiveResize=0;strokeWidth=1;autosize=1;spacing=4;treeFolding=1;treeMoving=1;spacingLeft=15;fontStyle=0;fontColor=#FFFFFF;fontFamily=Helvetica;labelBackgroundColor=none;" parent="C9lEH_5b1s0cTojLv4CT-1" vertex="1">
                    <mxGeometry x="290" y="320" width="270" height="30" as="geometry"/>
                </mxCell>
            </root>
        </mxGraphModel>
    </diagram>
    <diagram id="WA9nEnlLrRtTKZ29Y5Rw" name="Flowchart">
        &#xa;        
        <mxGraphModel dx="1274" dy="403" grid="1" gridSize="10" guides="1" tooltips="1" connect="1" arrows="1" fold="1" page="1" pageScale="1" pageWidth="1169" pageHeight="1654" math="0" shadow="0">
            &#xa;            
            <root>
                &#xa;                
                <mxCell id="0"/>
                &#xa;                
                <mxCell id="1" parent="0"/>
                &#xa;                
                <mxCell id="6opnw4jvnDFSU7TCie2I-1" style="edgeStyle=orthogonalEdgeStyle;rounded=0;orthogonalLoop=1;jettySize=auto;html=1;exitX=0.5;exitY=1;exitDx=0;exitDy=0;entryX=0.5;entryY=0;entryDx=0;entryDy=0;fontColor=#FFFFFF;labelBackgroundColor=none;" parent="1" source="t1fYcKleMOvsjPM7njyQ-1" target="t1fYcKleMOvsjPM7njyQ-2" edge="1">
                    &#xa;                    
                    <mxGeometry relative="1" as="geometry"/>
                    &#xa;                
                </mxCell>
                &#xa;                
                <mxCell id="t1fYcKleMOvsjPM7njyQ-1" value="general rounded rectangle&lt;br style=&quot;font-size: 12px&quot;&gt;terminator: start or end" style="rounded=1;whiteSpace=wrap;html=1;fontSize=12;arcSize=50;labelBackgroundColor=none;" parent="1" vertex="1">
                    &#xa;                    
                    <mxGeometry x="40" y="40" width="200" height="60" as="geometry"/>
                    &#xa;                
                </mxCell>
                &#xa;                
                <mxCell id="6opnw4jvnDFSU7TCie2I-2" style="edgeStyle=orthogonalEdgeStyle;rounded=0;orthogonalLoop=1;jettySize=auto;html=1;exitX=0.5;exitY=1;exitDx=0;exitDy=0;entryX=0.5;entryY=0;entryDx=0;entryDy=0;fontColor=#FFFFFF;labelBackgroundColor=none;" parent="1" source="t1fYcKleMOvsjPM7njyQ-2" target="t1fYcKleMOvsjPM7njyQ-7" edge="1">
                    &#xa;                    
                    <mxGeometry relative="1" as="geometry"/>
                    &#xa;                
                </mxCell>
                &#xa;                
                <mxCell id="t1fYcKleMOvsjPM7njyQ-2" value="general rectangle&lt;br&gt;process: an action or an operation" style="rounded=0;whiteSpace=wrap;html=1;fontSize=12;labelBackgroundColor=none;" parent="1" vertex="1">
                    &#xa;                    
                    <mxGeometry x="40" y="160" width="200" height="60" as="geometry"/>
                    &#xa;                
                </mxCell>
                &#xa;                
                <mxCell id="6opnw4jvnDFSU7TCie2I-3" style="edgeStyle=orthogonalEdgeStyle;rounded=0;orthogonalLoop=1;jettySize=auto;html=1;exitX=0.5;exitY=1;exitDx=0;exitDy=0;entryX=0.5;entryY=0;entryDx=0;entryDy=0;fontColor=#FFFFFF;labelBackgroundColor=none;" parent="1" source="t1fYcKleMOvsjPM7njyQ-7" target="t1fYcKleMOvsjPM7njyQ-13" edge="1">
                    &#xa;                    
                    <mxGeometry relative="1" as="geometry"/>
                    &#xa;                
                </mxCell>
                &#xa;                
                <mxCell id="t1fYcKleMOvsjPM7njyQ-7" value="general parallelogram&lt;br&gt;data (I/o): input to or output from" style="shape=parallelogram;perimeter=parallelogramPerimeter;whiteSpace=wrap;html=1;fontSize=12;labelBackgroundColor=none;" parent="1" vertex="1">
                    &#xa;                    
                    <mxGeometry x="40" y="270" width="200" height="60" as="geometry"/>
                    &#xa;                
                </mxCell>
                &#xa;                
                <mxCell id="6opnw4jvnDFSU7TCie2I-4" style="edgeStyle=orthogonalEdgeStyle;rounded=0;orthogonalLoop=1;jettySize=auto;html=1;exitX=0.5;exitY=1;exitDx=0;exitDy=0;entryX=0.5;entryY=0;entryDx=0;entryDy=0;entryPerimeter=0;fontColor=#FFFFFF;labelBackgroundColor=none;" parent="1" source="t1fYcKleMOvsjPM7njyQ-13" target="t1fYcKleMOvsjPM7njyQ-40" edge="1">
                    &#xa;                    
                    <mxGeometry relative="1" as="geometry"/>
                    &#xa;                
                </mxCell>
                &#xa;                
                <mxCell id="6opnw4jvnDFSU7TCie2I-17" style="edgeStyle=orthogonalEdgeStyle;rounded=0;orthogonalLoop=1;jettySize=auto;html=1;exitX=1;exitY=0.5;exitDx=0;exitDy=0;fontColor=#FFFFFF;labelBackgroundColor=none;" parent="1" source="t1fYcKleMOvsjPM7njyQ-13" target="t1fYcKleMOvsjPM7njyQ-37" edge="1">
                    &#xa;                    
                    <mxGeometry relative="1" as="geometry"/>
                    &#xa;                
                </mxCell>
                &#xa;                
                <mxCell id="t1fYcKleMOvsjPM7njyQ-13" value="general diamond&lt;br&gt;decision/conditional" style="rhombus;whiteSpace=wrap;html=1;fontSize=12;labelBackgroundColor=none;" parent="1" vertex="1">
                    &#xa;                    
                    <mxGeometry x="40" y="400" width="200" height="80" as="geometry"/>
                    &#xa;                
                </mxCell>
                &#xa;                
                <mxCell id="6opnw4jvnDFSU7TCie2I-18" style="edgeStyle=orthogonalEdgeStyle;rounded=0;orthogonalLoop=1;jettySize=auto;html=1;exitX=0.5;exitY=0;exitDx=0;exitDy=0;entryX=1;entryY=0.5;entryDx=0;entryDy=0;fontColor=#FFFFFF;labelBackgroundColor=none;" parent="1" source="t1fYcKleMOvsjPM7njyQ-37" target="t1fYcKleMOvsjPM7njyQ-2" edge="1">
                    &#xa;                    
                    <mxGeometry relative="1" as="geometry">
                        &#xa;                        
                        <mxPoint x="400" y="180" as="targetPoint"/>
                        &#xa;                    
                    </mxGeometry>
                    &#xa;                
                </mxCell>
                &#xa;                
                <mxCell id="t1fYcKleMOvsjPM7njyQ-37" value="general document&lt;br&gt;document: represent a doc or a report in a process flow" style="shape=document;whiteSpace=wrap;html=1;boundedLbl=1;fontSize=12;labelBackgroundColor=none;" parent="1" vertex="1">
                    &#xa;                    
                    <mxGeometry x="310" y="270" width="180" height="60" as="geometry"/>
                    &#xa;                
                </mxCell>
                &#xa;                
                <mxCell id="6opnw4jvnDFSU7TCie2I-5" style="edgeStyle=orthogonalEdgeStyle;rounded=0;orthogonalLoop=1;jettySize=auto;html=1;exitX=0.5;exitY=1;exitDx=0;exitDy=0;exitPerimeter=0;entryX=0.5;entryY=0;entryDx=0;entryDy=0;entryPerimeter=0;fontColor=#FFFFFF;labelBackgroundColor=none;" parent="1" source="t1fYcKleMOvsjPM7njyQ-40" target="t1fYcKleMOvsjPM7njyQ-45" edge="1">
                    &#xa;                    
                    <mxGeometry relative="1" as="geometry"/>
                    &#xa;                
                </mxCell>
                &#xa;                
                <mxCell id="t1fYcKleMOvsjPM7njyQ-40" value="flowchart stored data&lt;br&gt;general data storage object within an process" style="strokeWidth=2;html=1;shape=mxgraph.flowchart.stored_data;whiteSpace=wrap;fontSize=12;labelBackgroundColor=none;" parent="1" vertex="1">
                    &#xa;                    
                    <mxGeometry x="40" y="520" width="200" height="60" as="geometry"/>
                    &#xa;                
                </mxCell>
                &#xa;                
                <mxCell id="t1fYcKleMOvsjPM7njyQ-43" style="edgeStyle=orthogonalEdgeStyle;rounded=0;jumpStyle=arc;orthogonalLoop=1;jettySize=auto;html=1;exitX=0.5;exitY=1;exitDx=0;exitDy=0;exitPerimeter=0;fontSize=12;fontColor=#FFFFFF;labelBackgroundColor=none;" parent="1" source="t1fYcKleMOvsjPM7njyQ-40" target="t1fYcKleMOvsjPM7njyQ-40" edge="1">
                    &#xa;                    
                    <mxGeometry relative="1" as="geometry"/>
                    &#xa;                
                </mxCell>
                &#xa;                
                <mxCell id="6opnw4jvnDFSU7TCie2I-6" style="edgeStyle=orthogonalEdgeStyle;rounded=0;orthogonalLoop=1;jettySize=auto;html=1;exitX=0.5;exitY=1;exitDx=0;exitDy=0;exitPerimeter=0;entryX=0.5;entryY=0;entryDx=0;entryDy=0;fontColor=#FFFFFF;labelBackgroundColor=none;" parent="1" source="t1fYcKleMOvsjPM7njyQ-45" target="t1fYcKleMOvsjPM7njyQ-53" edge="1">
                    &#xa;                    
                    <mxGeometry relative="1" as="geometry"/>
                    &#xa;                
                </mxCell>
                &#xa;                
                <mxCell id="t1fYcKleMOvsjPM7njyQ-45" value="flowchart direct data&lt;br&gt;represents a hard drive" style="strokeWidth=2;html=1;shape=mxgraph.flowchart.direct_data;whiteSpace=wrap;labelBackgroundColor=none;" parent="1" vertex="1">
                    &#xa;                    
                    <mxGeometry x="40" y="650" width="200" height="70" as="geometry"/>
                    &#xa;                
                </mxCell>
                &#xa;                
                <mxCell id="XcbO7vqb9bJJ0kghSSdQ-6" value="" style="edgeStyle=orthogonalEdgeStyle;rounded=0;orthogonalLoop=1;jettySize=auto;html=1;fontColor=#FFFFFF;labelBackgroundColor=none;" parent="1" source="t1fYcKleMOvsjPM7njyQ-53" target="XcbO7vqb9bJJ0kghSSdQ-5" edge="1">
                    &#xa;                    
                    <mxGeometry relative="1" as="geometry"/>
                    &#xa;                
                </mxCell>
                &#xa;                
                <mxCell id="t1fYcKleMOvsjPM7njyQ-53" value="flowchart internal data&lt;br&gt;represents RAM data" style="shape=internalStorage;whiteSpace=wrap;html=1;dx=15;dy=15;rounded=1;arcSize=8;strokeWidth=2;labelBackgroundColor=none;" parent="1" vertex="1">
                    &#xa;                    
                    <mxGeometry x="80" y="780" width="120" height="70" as="geometry"/>
                    &#xa;                
                </mxCell>
                &#xa;                
                <mxCell id="6opnw4jvnDFSU7TCie2I-12" style="edgeStyle=orthogonalEdgeStyle;rounded=0;orthogonalLoop=1;jettySize=auto;html=1;exitX=0.5;exitY=1;exitDx=0;exitDy=0;exitPerimeter=0;entryX=0.5;entryY=0.143;entryDx=0;entryDy=0;entryPerimeter=0;fontColor=#FFFFFF;labelBackgroundColor=none;" parent="1" source="t1fYcKleMOvsjPM7njyQ-55" target="t1fYcKleMOvsjPM7njyQ-57" edge="1">
                    &#xa;                    
                    <mxGeometry relative="1" as="geometry"/>
                    &#xa;                
                </mxCell>
                &#xa;                
                <mxCell id="t1fYcKleMOvsjPM7njyQ-55" value="flowchart sequential access&lt;br&gt;represents data stored in a sequence, such as tape" style="strokeWidth=2;html=1;shape=mxgraph.flowchart.sequential_data;whiteSpace=wrap;labelBackgroundColor=none;" parent="1" vertex="1">
                    &#xa;                    
                    <mxGeometry x="40" y="1130" width="200" height="110" as="geometry"/>
                    &#xa;                
                </mxCell>
                &#xa;                
                <mxCell id="XcbO7vqb9bJJ0kghSSdQ-3" value="" style="edgeStyle=orthogonalEdgeStyle;rounded=0;orthogonalLoop=1;jettySize=auto;html=1;fontColor=#FFFFFF;labelBackgroundColor=none;" parent="1" source="t1fYcKleMOvsjPM7njyQ-57" target="XcbO7vqb9bJJ0kghSSdQ-2" edge="1">
                    &#xa;                    
                    <mxGeometry relative="1" as="geometry"/>
                    &#xa;                
                </mxCell>
                &#xa;                
                <mxCell id="t1fYcKleMOvsjPM7njyQ-57" value="flowchart manual input&lt;br&gt;represents input from users" style="html=1;strokeWidth=2;shape=manualInput;whiteSpace=wrap;rounded=1;size=26;arcSize=11;labelBackgroundColor=none;" parent="1" vertex="1">
                    &#xa;                    
                    <mxGeometry x="40" y="1310" width="200" height="70" as="geometry"/>
                    &#xa;                
                </mxCell>
                &#xa;                
                <mxCell id="XcbO7vqb9bJJ0kghSSdQ-11" value="" style="edgeStyle=orthogonalEdgeStyle;rounded=0;orthogonalLoop=1;jettySize=auto;html=1;fontColor=#FFFFFF;labelBackgroundColor=none;" parent="1" source="t1fYcKleMOvsjPM7njyQ-63" target="XcbO7vqb9bJJ0kghSSdQ-9" edge="1">
                    &#xa;                    
                    <mxGeometry relative="1" as="geometry"/>
                    &#xa;                
                </mxCell>
                &#xa;                
                <mxCell id="t1fYcKleMOvsjPM7njyQ-63" value="flowchart predefined process&lt;br&gt;represents subprocess already drawn" style="verticalLabelPosition=middle;verticalAlign=middle;html=1;shape=process;whiteSpace=wrap;rounded=1;size=0.14;arcSize=6;strokeWidth=2;horizontal=1;labelPosition=center;align=center;labelBackgroundColor=none;" parent="1" vertex="1">
                    &#xa;                    
                    <mxGeometry x="40" y="1570" width="200" height="60" as="geometry"/>
                    &#xa;                
                </mxCell>
                &#xa;                
                <mxCell id="t1fYcKleMOvsjPM7njyQ-69" value="flowchart terminator&lt;br&gt;represents starting or ending" style="strokeWidth=2;html=1;shape=mxgraph.flowchart.terminator;whiteSpace=wrap;labelBackgroundColor=none;" parent="1" vertex="1">
                    &#xa;                    
                    <mxGeometry x="40" y="1850" width="200" height="60" as="geometry"/>
                    &#xa;                
                </mxCell>
                &#xa;                
                <mxCell id="XcbO7vqb9bJJ0kghSSdQ-4" value="" style="edgeStyle=orthogonalEdgeStyle;rounded=0;orthogonalLoop=1;jettySize=auto;html=1;fontColor=#FFFFFF;labelBackgroundColor=none;" parent="1" source="XcbO7vqb9bJJ0kghSSdQ-2" target="t1fYcKleMOvsjPM7njyQ-63" edge="1">
                    &#xa;                    
                    <mxGeometry relative="1" as="geometry"/>
                    &#xa;                
                </mxCell>
                &#xa;                
                <mxCell id="XcbO7vqb9bJJ0kghSSdQ-2" value="flowchart display&lt;br&gt;represents information displayed" style="strokeWidth=2;html=1;shape=mxgraph.flowchart.display;whiteSpace=wrap;rounded=0;shadow=0;glass=0;comic=0;labelBackgroundColor=none;" parent="1" vertex="1">
                    &#xa;                    
                    <mxGeometry x="40" y="1450" width="200" height="60" as="geometry"/>
                    &#xa;                
                </mxCell>
                &#xa;                
                <mxCell id="XcbO7vqb9bJJ0kghSSdQ-7" value="" style="edgeStyle=orthogonalEdgeStyle;rounded=0;orthogonalLoop=1;jettySize=auto;html=1;fontColor=#FFFFFF;labelBackgroundColor=none;" parent="1" source="XcbO7vqb9bJJ0kghSSdQ-5" target="t1fYcKleMOvsjPM7njyQ-55" edge="1">
                    &#xa;                    
                    <mxGeometry relative="1" as="geometry"/>
                    &#xa;                
                </mxCell>
                &#xa;                
                <mxCell id="XcbO7vqb9bJJ0kghSSdQ-5" value="flowchart database" style="strokeWidth=2;html=1;shape=mxgraph.flowchart.database;whiteSpace=wrap;rounded=0;shadow=0;glass=0;comic=0;labelBackgroundColor=none;" parent="1" vertex="1">
                    &#xa;                    
                    <mxGeometry x="80" y="920" width="120" height="140" as="geometry"/>
                    &#xa;                
                </mxCell>
                &#xa;                
                <mxCell id="XcbO7vqb9bJJ0kghSSdQ-12" value="" style="edgeStyle=orthogonalEdgeStyle;rounded=0;orthogonalLoop=1;jettySize=auto;html=1;fontColor=#FFFFFF;labelBackgroundColor=none;" parent="1" source="XcbO7vqb9bJJ0kghSSdQ-9" target="t1fYcKleMOvsjPM7njyQ-69" edge="1">
                    &#xa;                    
                    <mxGeometry relative="1" as="geometry"/>
                    &#xa;                
                </mxCell>
                &#xa;                
                <mxCell id="XcbO7vqb9bJJ0kghSSdQ-9" value="flowchart manual operation&lt;br&gt;represents steps done manually" style="verticalLabelPosition=middle;verticalAlign=middle;html=1;shape=trapezoid;perimeter=trapezoidPerimeter;whiteSpace=wrap;size=0.23;arcSize=10;flipV=1;rounded=0;shadow=0;glass=0;comic=0;labelPosition=center;align=center;labelBackgroundColor=none;" parent="1" vertex="1">
                    &#xa;                    
                    <mxGeometry x="40" y="1710" width="200" height="60" as="geometry"/>
                    &#xa;                
                </mxCell>
                &#xa;            
            </root>
            &#xa;        
        </mxGraphModel>
        &#xa;    
    </diagram>
    <diagram id="b8LEq6iYALmTpYq4ptu3" name="DFD">
        &#xa;        
        <mxGraphModel dx="1274" dy="403" grid="1" gridSize="10" guides="1" tooltips="1" connect="1" arrows="1" fold="1" page="1" pageScale="1" pageWidth="2339" pageHeight="3300" background="none" math="0" shadow="0">
            &#xa;            
            <root>
                &#xa;                
                <mxCell id="0SXu1IqWU0nzYwYXobOZ-0"/>
                &#xa;                
                <mxCell id="0SXu1IqWU0nzYwYXobOZ-1" parent="0SXu1IqWU0nzYwYXobOZ-0"/>
                &#xa;                
                <mxCell id="0SXu1IqWU0nzYwYXobOZ-2" value="&lt;span style=&quot;font-weight: normal&quot;&gt;DFD symbols&lt;/span&gt;" style="swimlane;html=1;childLayout=stackLayout;resizeParent=1;resizeParentMax=0;startSize=20;rounded=1;shadow=0;glass=0;comic=0;labelBackgroundColor=none;align=center;" parent="0SXu1IqWU0nzYwYXobOZ-1" vertex="1">
                    &#xa;                    
                    <mxGeometry x="110" y="180" width="440" height="480" as="geometry"/>
                    &#xa;                
                </mxCell>
                &#xa;                
                <mxCell id="0SXu1IqWU0nzYwYXobOZ-3" value="&lt;span style=&quot;font-weight: normal&quot;&gt;Yourdon and Coad&lt;/span&gt;" style="swimlane;html=1;startSize=20;align=center;labelBackgroundColor=none;" parent="0SXu1IqWU0nzYwYXobOZ-2" vertex="1">
                    &#xa;                    
                    <mxGeometry y="20" width="220" height="460" as="geometry">
                        &#xa;                        
                        <mxRectangle y="20" width="30" height="460" as="alternateBounds"/>
                        &#xa;                    
                    </mxGeometry>
                    &#xa;                
                </mxCell>
                &#xa;                
                <mxCell id="0SXu1IqWU0nzYwYXobOZ-7" value="external entity" style="html=1;dashed=0;whitespace=wrap;rounded=1;shadow=0;glass=0;comic=0;labelBackgroundColor=none;align=center;" parent="0SXu1IqWU0nzYwYXobOZ-3" vertex="1">
                    &#xa;                    
                    <mxGeometry x="60" y="60" width="100" height="50" as="geometry"/>
                    &#xa;                
                </mxCell>
                &#xa;                
                <mxCell id="0SXu1IqWU0nzYwYXobOZ-9" value="process" style="shape=ellipse;html=1;dashed=0;whitespace=wrap;aspect=fixed;perimeter=ellipsePerimeter;rounded=1;shadow=0;glass=0;comic=0;labelBackgroundColor=none;align=center;" parent="0SXu1IqWU0nzYwYXobOZ-3" vertex="1">
                    &#xa;                    
                    <mxGeometry x="60" y="160" width="100" height="100" as="geometry"/>
                    &#xa;                
                </mxCell>
                &#xa;                
                <mxCell id="0SXu1IqWU0nzYwYXobOZ-11" value="data store" style="html=1;dashed=0;whitespace=wrap;shape=partialRectangle;right=0;rounded=1;shadow=0;glass=0;comic=0;labelBackgroundColor=none;align=center;" parent="0SXu1IqWU0nzYwYXobOZ-3" vertex="1">
                    &#xa;                    
                    <mxGeometry x="60" y="320" width="100" height="30" as="geometry"/>
                    &#xa;                
                </mxCell>
                &#xa;                
                <mxCell id="0SXu1IqWU0nzYwYXobOZ-13" value="" style="endArrow=classic;html=1;strokeWidth=1;fontColor=#000000;labelBackgroundColor=none;" parent="0SXu1IqWU0nzYwYXobOZ-3" edge="1">
                    &#xa;                    
                    <mxGeometry width="50" height="50" relative="1" as="geometry">
                        &#xa;                        
                        <mxPoint x="60" y="410" as="sourcePoint"/>
                        &#xa;                        
                        <mxPoint x="150" y="410" as="targetPoint"/>
                        &#xa;                    
                    </mxGeometry>
                    &#xa;                
                </mxCell>
                &#xa;                
                <mxCell id="0SXu1IqWU0nzYwYXobOZ-16" value="data flow" style="text;html=1;align=center;verticalAlign=middle;resizable=0;points=[];autosize=1;labelBackgroundColor=none;" parent="0SXu1IqWU0nzYwYXobOZ-3" vertex="1">
                    &#xa;                    
                    <mxGeometry x="80" y="390" width="60" height="20" as="geometry"/>
                    &#xa;                
                </mxCell>
                &#xa;                
                <mxCell id="UyKNDZANO31MctRCtnSL-0" value="data flow" style="text;html=1;align=center;verticalAlign=middle;resizable=0;points=[];autosize=1;labelBackgroundColor=none;" parent="0SXu1IqWU0nzYwYXobOZ-3" vertex="1">
                    &#xa;                    
                    <mxGeometry x="80" y="390" width="60" height="20" as="geometry"/>
                    &#xa;                
                </mxCell>
                &#xa;                
                <mxCell id="0SXu1IqWU0nzYwYXobOZ-4" value="Gane and Saarson" style="swimlane;html=1;startSize=20;rounded=1;fontStyle=0;labelBackgroundColor=none;" parent="0SXu1IqWU0nzYwYXobOZ-2" vertex="1">
                    &#xa;                    
                    <mxGeometry x="220" y="20" width="220" height="460" as="geometry">
                        &#xa;                        
                        <mxRectangle x="30" y="20" width="30" height="460" as="alternateBounds"/>
                        &#xa;                    
                    </mxGeometry>
                    &#xa;                
                </mxCell>
                &#xa;                
                <mxCell id="0SXu1IqWU0nzYwYXobOZ-8" value="external entity" style="html=1;dashed=0;whitespace=wrap;rounded=1;shadow=0;glass=0;comic=0;labelBackgroundColor=none;align=center;" parent="0SXu1IqWU0nzYwYXobOZ-4" vertex="1">
                    &#xa;                    
                    <mxGeometry x="60" y="60" width="100" height="50" as="geometry"/>
                    &#xa;                
                </mxCell>
                &#xa;                
                <mxCell id="0SXu1IqWU0nzYwYXobOZ-10" value="level&#10;&#10;process" style="swimlane;fontStyle=0;childLayout=stackLayout;horizontal=1;startSize=30;horizontalStack=0;resizeParent=1;resizeParentMax=0;resizeLast=0;collapsible=0;marginBottom=0;swimlaneFillColor=none;rounded=1;shadow=0;glass=0;comic=0;labelBackgroundColor=none;align=center;html=0;labelPosition=center;verticalLabelPosition=middle;verticalAlign=top;fillColor=none;strokeColor=#FFFFFF;" parent="0SXu1IqWU0nzYwYXobOZ-4" vertex="1">
                    &#xa;                    
                    <mxGeometry x="60" y="170" width="110" height="60" as="geometry"/>
                    &#xa;                
                </mxCell>
                &#xa;                
                <mxCell id="0SXu1IqWU0nzYwYXobOZ-12" value="id&amp;nbsp; &amp;nbsp; &amp;nbsp; &amp;nbsp; &amp;nbsp;data store" style="html=1;dashed=0;whitespace=wrap;shape=mxgraph.dfd.dataStoreID;align=left;spacingLeft=3;points=[[0,0],[0.5,0],[1,0],[0,0.5],[1,0.5],[0,1],[0.5,1],[1,1]];rounded=1;shadow=0;glass=0;comic=0;labelBackgroundColor=none;" parent="0SXu1IqWU0nzYwYXobOZ-4" vertex="1">
                    &#xa;                    
                    <mxGeometry x="60" y="320" width="100" height="30" as="geometry"/>
                    &#xa;                
                </mxCell>
                &#xa;                
                <mxCell id="0SXu1IqWU0nzYwYXobOZ-14" value="" style="endArrow=classic;html=1;strokeWidth=1;fontColor=#000000;labelBackgroundColor=none;" parent="0SXu1IqWU0nzYwYXobOZ-4" edge="1">
                    &#xa;                    
                    <mxGeometry width="50" height="50" relative="1" as="geometry">
                        &#xa;                        
                        <mxPoint x="65" y="410" as="sourcePoint"/>
                        &#xa;                        
                        <mxPoint x="155" y="410" as="targetPoint"/>
                        &#xa;                    
                    </mxGeometry>
                    &#xa;                
                </mxCell>
                &#xa;                
                <mxCell id="0SXu1IqWU0nzYwYXobOZ-18" value="data flow" style="text;html=1;align=center;verticalAlign=middle;resizable=0;points=[];autosize=1;labelBackgroundColor=none;" parent="0SXu1IqWU0nzYwYXobOZ-4" vertex="1">
                    &#xa;                    
                    <mxGeometry x="80" y="390" width="60" height="20" as="geometry"/>
                    &#xa;                
                </mxCell>
                &#xa;            
            </root>
            &#xa;        
        </mxGraphModel>
        &#xa;    
    </diagram>
    <diagram id="4YDl_8AQS7CFEggOsk8C" name="BPMN">
        &#xa;        
        <mxGraphModel dx="1274" dy="403" grid="1" gridSize="10" guides="1" tooltips="1" connect="1" arrows="1" fold="1" page="1" pageScale="1" pageWidth="827" pageHeight="1169" math="0" shadow="0">
            &#xa;            
            <root>
                &#xa;                
                <mxCell id="K6OYYqdD8ATvIEd_lg5Y-0"/>
                &#xa;                
                <mxCell id="K6OYYqdD8ATvIEd_lg5Y-1" parent="K6OYYqdD8ATvIEd_lg5Y-0"/>
                &#xa;                
                <mxCell id="a2iJeDu8ZyZ31uw2YpDt-31" value="" style="group;strokeColor=none;strokeWidth=1;perimeterSpacing=0;rounded=0;collapsible=0;spacingTop=0;spacingLeft=4;fillColor=none;container=0;" parent="K6OYYqdD8ATvIEd_lg5Y-1" vertex="1" connectable="0">
                    &#xa;                    
                    <mxGeometry x="100" y="30" width="401" height="354" as="geometry">
                        &#xa;                        
                        <mxRectangle x="54" y="44" width="50" height="40" as="alternateBounds"/>
                        &#xa;                    
                    </mxGeometry>
                    &#xa;                
                </mxCell>
                &#xa;                
                <mxCell id="a2iJeDu8ZyZ31uw2YpDt-80" value="BPMN" style="swimlane;html=1;childLayout=stackLayout;resizeParent=1;resizeParentMax=0;horizontal=1;startSize=20;horizontalStack=0;rounded=0;strokeWidth=1;align=right;fontStyle=0;collapsible=0;labelPosition=left;verticalLabelPosition=middle;verticalAlign=middle;fillColor=#ffffff;" parent="K6OYYqdD8ATvIEd_lg5Y-1" vertex="1">
                    &#xa;                    
                    <mxGeometry x="170" y="20" width="570" height="690" as="geometry"/>
                    &#xa;                
                </mxCell>
                &#xa;                
                <mxCell id="a2iJeDu8ZyZ31uw2YpDt-81" value="&lt;div style=&quot;text-align: justify&quot;&gt;events&lt;/div&gt;" style="swimlane;html=1;startSize=20;horizontal=0;labelPosition=center;verticalLabelPosition=middle;align=center;verticalAlign=middle;fontStyle=0;collapsible=0;swimlaneLine=1;strokeColor=#FFFFFF;" parent="a2iJeDu8ZyZ31uw2YpDt-80" vertex="1">
                    &#xa;                    
                    <mxGeometry y="20" width="570" height="110" as="geometry"/>
                    &#xa;                
                </mxCell>
                &#xa;                
                <mxCell id="a2iJeDu8ZyZ31uw2YpDt-82" value="start" style="shape=mxgraph.bpmn.shape;html=1;verticalLabelPosition=bottom;labelBackgroundColor=none;verticalAlign=top;align=center;perimeter=ellipsePerimeter;outlineConnect=0;outline=standard;symbol=general;labelPosition=center;spacingLeft=0;" parent="a2iJeDu8ZyZ31uw2YpDt-81" vertex="1">
                    &#xa;                    
                    <mxGeometry x="50" y="30" width="50" height="50" as="geometry"/>
                    &#xa;                
                </mxCell>
                &#xa;                
                <mxCell id="a2iJeDu8ZyZ31uw2YpDt-83" value="end" style="shape=mxgraph.bpmn.shape;html=1;verticalLabelPosition=bottom;labelBackgroundColor=none;verticalAlign=top;align=center;perimeter=ellipsePerimeter;outlineConnect=0;outline=end;symbol=general;labelPosition=center;spacingLeft=0;" parent="a2iJeDu8ZyZ31uw2YpDt-81" vertex="1">
                    &#xa;                    
                    <mxGeometry x="288" y="30" width="50" height="50" as="geometry"/>
                    &#xa;                
                </mxCell>
                &#xa;                
                <mxCell id="a2iJeDu8ZyZ31uw2YpDt-84" value="intermediate" style="shape=mxgraph.bpmn.shape;html=1;verticalLabelPosition=bottom;labelBackgroundColor=none;verticalAlign=top;align=center;perimeter=ellipsePerimeter;outlineConnect=0;outline=throwing;symbol=general;labelPosition=center;spacingLeft=0;" parent="a2iJeDu8ZyZ31uw2YpDt-81" vertex="1">
                    &#xa;                    
                    <mxGeometry x="170" y="30" width="50" height="50" as="geometry"/>
                    &#xa;                
                </mxCell>
                &#xa;                
                <mxCell id="a2iJeDu8ZyZ31uw2YpDt-85" value="activities" style="swimlane;html=1;startSize=20;horizontal=0;fontStyle=0;collapsible=0;" parent="a2iJeDu8ZyZ31uw2YpDt-80" vertex="1">
                    &#xa;                    
                    <mxGeometry y="130" width="570" height="110" as="geometry"/>
                    &#xa;                
                </mxCell>
                &#xa;                
                <mxCell id="E5CgbUWFhswzzXsZIfZ_-0" value="Sub-Process" style="html=1;whiteSpace=wrap;rounded=1;dropTarget=0;align=center;labelPosition=center;verticalLabelPosition=bottom;verticalAlign=top;" parent="a2iJeDu8ZyZ31uw2YpDt-85" vertex="1">
                    &#xa;                    
                    <mxGeometry x="164" y="30" width="80" height="50" as="geometry"/>
                    &#xa;                
                </mxCell>
                &#xa;                
                <mxCell id="E5CgbUWFhswzzXsZIfZ_-1" value="" style="html=1;shape=plus;outlineConnect=0;" parent="E5CgbUWFhswzzXsZIfZ_-0" vertex="1">
                    &#xa;                    
                    <mxGeometry x="0.5" y="1" width="14" height="14" relative="1" as="geometry">
                        &#xa;                        
                        <mxPoint x="-7" y="-14" as="offset"/>
                        &#xa;                    
                    </mxGeometry>
                    &#xa;                
                </mxCell>
                &#xa;                
                <mxCell id="a2iJeDu8ZyZ31uw2YpDt-86" value="task" style="shape=ext;rounded=1;html=1;whiteSpace=wrap;align=center;labelPosition=center;verticalLabelPosition=bottom;verticalAlign=top;spacingLeft=0;" parent="a2iJeDu8ZyZ31uw2YpDt-85" vertex="1">
                    &#xa;                    
                    <mxGeometry x="37.5" y="30" width="75" height="50" as="geometry"/>
                    &#xa;                
                </mxCell>
                &#xa;                
                <mxCell id="a2iJeDu8ZyZ31uw2YpDt-87" value="gateway" style="swimlane;html=1;startSize=20;horizontal=0;fontStyle=0;collapsible=0;" parent="a2iJeDu8ZyZ31uw2YpDt-80" vertex="1">
                    &#xa;                    
                    <mxGeometry y="240" width="570" height="120" as="geometry"/>
                    &#xa;                
                </mxCell>
                &#xa;                
                <mxCell id="F0RLklyAbE4DoCmIOT03-0" value="link catching&lt;br&gt;jump to" style="shape=mxgraph.bpmn.shape;html=1;verticalLabelPosition=bottom;labelBackgroundColor=none;verticalAlign=top;align=center;perimeter=ellipsePerimeter;outlineConnect=0;outline=catching;symbol=link;rounded=1;fillColor=none;" parent="a2iJeDu8ZyZ31uw2YpDt-87" vertex="1">
                    &#xa;                    
                    <mxGeometry x="470" y="30" width="50" height="50" as="geometry"/>
                    &#xa;                
                </mxCell>
                &#xa;                
                <mxCell id="a2iJeDu8ZyZ31uw2YpDt-88" value="&lt;font color=&quot;#ffffff&quot; style=&quot;&quot;&gt;exclusive&lt;/font&gt;" style="shape=mxgraph.bpmn.shape;html=1;verticalLabelPosition=bottom;labelBackgroundColor=none;verticalAlign=top;align=center;perimeter=rhombusPerimeter;background=gateway;outlineConnect=0;outline=none;symbol=exclusiveGw;spacingLeft=0;fillColor=none;" parent="a2iJeDu8ZyZ31uw2YpDt-87" vertex="1">
                    &#xa;                    
                    <mxGeometry x="50" y="30" width="50" height="50" as="geometry"/>
                    &#xa;                
                </mxCell>
                &#xa;                
                <mxCell id="a2iJeDu8ZyZ31uw2YpDt-89" value="&lt;span style=&quot;&quot;&gt;parallel&lt;/span&gt;" style="shape=mxgraph.bpmn.shape;html=1;verticalLabelPosition=bottom;labelBackgroundColor=none;verticalAlign=top;align=center;perimeter=rhombusPerimeter;background=gateway;outlineConnect=0;outline=none;symbol=parallelGw;spacingLeft=0;" parent="a2iJeDu8ZyZ31uw2YpDt-87" vertex="1">
                    &#xa;                    
                    <mxGeometry x="170" y="30" width="50" height="50" as="geometry"/>
                    &#xa;                
                </mxCell>
                &#xa;                
                <mxCell id="LmZAyWVDy1wjdzMC1RJE-0" value="event" style="shape=mxgraph.bpmn.shape;html=1;verticalLabelPosition=bottom;labelBackgroundColor=none;verticalAlign=top;align=center;perimeter=rhombusPerimeter;background=gateway;outlineConnect=0;outline=boundInt;symbol=multiple;rounded=1;shadow=0;glass=0;comic=0;strokeColor=#FFFFFF;strokeWidth=1;fillColor=none;gradientColor=none;fontColor=#000000;" parent="a2iJeDu8ZyZ31uw2YpDt-87" vertex="1">
                    &#xa;                    
                    <mxGeometry x="380" y="30" width="50" height="50" as="geometry"/>
                    &#xa;                
                </mxCell>
                &#xa;                
                <mxCell id="LmZAyWVDy1wjdzMC1RJE-1" value="inclusive" style="shape=mxgraph.bpmn.shape;html=1;verticalLabelPosition=bottom;labelBackgroundColor=none;verticalAlign=top;align=center;perimeter=rhombusPerimeter;background=gateway;outlineConnect=0;outline=end;symbol=general;rounded=1;shadow=0;glass=0;comic=0;strokeColor=#FFFFFF;strokeWidth=1;fillColor=none;gradientColor=none;fontColor=#000000;" parent="a2iJeDu8ZyZ31uw2YpDt-87" vertex="1">
                    &#xa;                    
                    <mxGeometry x="290" y="30" width="50" height="50" as="geometry"/>
                    &#xa;                
                </mxCell>
                &#xa;                
                <mxCell id="a2iJeDu8ZyZ31uw2YpDt-90" value="flow" style="swimlane;html=1;startSize=20;horizontal=0;fontStyle=0;collapsible=0;" parent="a2iJeDu8ZyZ31uw2YpDt-80" vertex="1">
                    &#xa;                    
                    <mxGeometry y="360" width="570" height="110" as="geometry"/>
                    &#xa;                
                </mxCell>
                &#xa;                
                <mxCell id="a2iJeDu8ZyZ31uw2YpDt-91" value="" style="endArrow=block;endFill=1;endSize=6;html=1;spacingLeft=0;" parent="a2iJeDu8ZyZ31uw2YpDt-90" edge="1">
                    &#xa;                    
                    <mxGeometry width="100" relative="1" as="geometry">
                        &#xa;                        
                        <mxPoint x="40" y="64.25" as="sourcePoint"/>
                        &#xa;                        
                        <mxPoint x="140" y="64.25" as="targetPoint"/>
                        &#xa;                    
                    </mxGeometry>
                    &#xa;                
                </mxCell>
                &#xa;                
                <mxCell id="a2iJeDu8ZyZ31uw2YpDt-92" value="sequence flow" style="text;html=1;align=center;verticalAlign=middle;resizable=0;points=[];autosize=1;spacingLeft=0;" parent="a2iJeDu8ZyZ31uw2YpDt-90" vertex="1">
                    &#xa;                    
                    <mxGeometry x="45" y="44.75" width="90" height="20" as="geometry"/>
                    &#xa;                
                </mxCell>
                &#xa;                
                <mxCell id="a2iJeDu8ZyZ31uw2YpDt-93" value="" style="group;spacingLeft=0;" parent="a2iJeDu8ZyZ31uw2YpDt-90" vertex="1" connectable="0">
                    &#xa;                    
                    <mxGeometry x="165" y="44.75" width="105" height="20" as="geometry"/>
                    &#xa;                
                </mxCell>
                &#xa;                
                <mxCell id="a2iJeDu8ZyZ31uw2YpDt-94" value="" style="startArrow=oval;startFill=0;startSize=7;endArrow=block;endFill=0;endSize=10;dashed=1;html=1;spacingLeft=0;" parent="a2iJeDu8ZyZ31uw2YpDt-93" edge="1">
                    &#xa;                    
                    <mxGeometry width="100" relative="1" as="geometry">
                        &#xa;                        
                        <mxPoint x="5" y="19" as="sourcePoint"/>
                        &#xa;                        
                        <mxPoint x="105" y="19" as="targetPoint"/>
                        &#xa;                    
                    </mxGeometry>
                    &#xa;                
                </mxCell>
                &#xa;                
                <mxCell id="a2iJeDu8ZyZ31uw2YpDt-95" value="message flow" style="text;html=1;align=center;verticalAlign=middle;resizable=0;points=[];autosize=1;spacingLeft=0;" parent="a2iJeDu8ZyZ31uw2YpDt-93" vertex="1">
                    &#xa;                    
                    <mxGeometry width="90" height="20" as="geometry"/>
                    &#xa;                
                </mxCell>
                &#xa;                
                <mxCell id="NtHi-PNT-zYLvqrIQnqI-0" value="" style="endArrow=none;endFill=0;endSize=6;html=1;dashed=1;" parent="a2iJeDu8ZyZ31uw2YpDt-90" edge="1">
                    &#xa;                    
                    <mxGeometry width="100" relative="1" as="geometry">
                        &#xa;                        
                        <mxPoint x="290" y="64.75" as="sourcePoint"/>
                        &#xa;                        
                        <mxPoint x="390" y="64.75" as="targetPoint"/>
                        &#xa;                    
                    </mxGeometry>
                    &#xa;                
                </mxCell>
                &#xa;                
                <mxCell id="NtHi-PNT-zYLvqrIQnqI-2" value="association" style="text;html=1;align=center;verticalAlign=middle;resizable=0;points=[];autosize=1;" parent="a2iJeDu8ZyZ31uw2YpDt-90" vertex="1">
                    &#xa;                    
                    <mxGeometry x="290" y="44.75" width="80" height="20" as="geometry"/>
                    &#xa;                
                </mxCell>
                &#xa;                
                <mxCell id="LmZAyWVDy1wjdzMC1RJE-4" value="data" style="swimlane;html=1;startSize=20;horizontal=0;fontStyle=0;collapsible=0;" parent="a2iJeDu8ZyZ31uw2YpDt-80" vertex="1">
                    &#xa;                    
                    <mxGeometry y="470" width="570" height="110" as="geometry"/>
                    &#xa;                
                </mxCell>
                &#xa;                
                <mxCell id="LmZAyWVDy1wjdzMC1RJE-12" value="data object" style="shape=note;whiteSpace=wrap;size=16;html=1;rounded=1;shadow=0;glass=0;comic=0;strokeWidth=1;align=center;labelBackgroundColor=none;" parent="LmZAyWVDy1wjdzMC1RJE-4" vertex="1">
                    &#xa;                    
                    <mxGeometry x="50" y="25" width="40" height="60" as="geometry"/>
                    &#xa;                
                </mxCell>
                &#xa;                
                <mxCell id="LmZAyWVDy1wjdzMC1RJE-15" value="data store" style="shape=datastore;whiteSpace=wrap;html=1;rounded=1;shadow=0;glass=0;comic=0;strokeWidth=1;align=center;" parent="LmZAyWVDy1wjdzMC1RJE-4" vertex="1">
                    &#xa;                    
                    <mxGeometry x="170" y="25" width="60" height="60" as="geometry"/>
                    &#xa;                
                </mxCell>
                &#xa;                
                <mxCell id="LmZAyWVDy1wjdzMC1RJE-17" value="link" style="swimlane;html=1;startSize=20;horizontal=0;fontStyle=0;collapsible=0;" parent="a2iJeDu8ZyZ31uw2YpDt-80" vertex="1">
                    &#xa;                    
                    <mxGeometry y="580" width="570" height="110" as="geometry"/>
                    &#xa;                
                </mxCell>
                &#xa;                
                <UserObject label="BPMN 2.0 Symbol Reference" link="https://camunda.com/bpmn/reference/" id="LmZAyWVDy1wjdzMC1RJE-20">
                    &#xa;                    
                    <mxCell style="text;html=1;align=left;verticalAlign=bottom;resizable=0;points=[];autosize=1;" parent="LmZAyWVDy1wjdzMC1RJE-17" vertex="1">
                        &#xa;                        
                        <mxGeometry x="30" y="10" width="170" height="20" as="geometry"/>
                        &#xa;                    
                    </mxCell>
                    &#xa;                
                </UserObject>
                &#xa;                
                <UserObject label="BPMN quick start" link="https://www.process.st/bpmn-tutorial/" id="LmZAyWVDy1wjdzMC1RJE-21">
                    &#xa;                    
                    <mxCell style="text;html=1;align=left;verticalAlign=bottom;resizable=0;points=[];autosize=1;" parent="LmZAyWVDy1wjdzMC1RJE-17" vertex="1">
                        &#xa;                        
                        <mxGeometry x="30" y="30" width="110" height="20" as="geometry"/>
                        &#xa;                    
                    </mxCell>
                    &#xa;                
                </UserObject>
                &#xa;                
                <UserObject label="BPMN tutorial" link="https://www.visual-paradigm.com/tutorials/how-to-use-data-object-in-bpd.jsp#" id="vqLvii-mWUcqpEUlyQbk-0">
                    &#xa;                    
                    <mxCell style="text;html=1;align=left;verticalAlign=middle;resizable=0;points=[];autosize=1;" parent="LmZAyWVDy1wjdzMC1RJE-17" vertex="1">
                        &#xa;                        
                        <mxGeometry x="30" y="50" width="90" height="20" as="geometry"/>
                        &#xa;                    
                    </mxCell>
                    &#xa;                
                </UserObject>
                &#xa;                
                <mxCell id="dUZ_4Rpok2xqBfVeD7GQ-0" value="" style="edgeStyle=orthogonalEdgeStyle;rounded=0;orthogonalLoop=1;jettySize=auto;html=1;labelBackgroundColor=none;fontColor=#FFFFFF;exitX=0.5;exitY=1;exitDx=0;exitDy=0;" parent="a2iJeDu8ZyZ31uw2YpDt-80" source="a2iJeDu8ZyZ31uw2YpDt-82" target="a2iJeDu8ZyZ31uw2YpDt-86" edge="1">
                    &#xa;                    
                    <mxGeometry relative="1" as="geometry">
                        &#xa;                        
                        <mxPoint x="75" y="120" as="sourcePoint"/>
                        &#xa;                    
                    </mxGeometry>
                    &#xa;                
                </mxCell>
                &#xa;            
            </root>
            &#xa;        
        </mxGraphModel>
        &#xa;    
    </diagram>
</mxfile>